<svg width="348" height="72" xmlns="http://www.w3.org/2000/svg" fill="none" viewBox="0 0 719 147"><path fill="#0E2562" fill-rule="evenodd" d="M161.77 59.2771c2.027-7.4558 1.187-13.1802-2.52-17.1655-3.707-3.989-10.198-5.9816-19.474-5.9816h-35.581l-21.4108 78.861H100.07L108.7 83.2h11.337c2.54 0 4.542.4082 6.007 1.2209 1.465.8127 2.325 2.254 2.59 4.3198l3.082 26.2503h18.519l-3.004-24.4782c-.612-5.4629-3.144-8.6767-7.6-9.636 5.68-1.621 10.434-4.3198 14.261-8.0847 3.827-3.7646 6.454-8.2681 7.878-13.515Zm-16.504.4448c-.964 3.5441-2.83 6.1448-5.602 7.8069-2.772 1.6617-6.661 2.4948-11.675 2.4948h-15.942l5.598-20.6033h15.937c5.014 0 8.453.8286 10.323 2.4906 1.866 1.6617 2.321 4.2669 1.361 7.811Zm66.101-.8866-2.164 7.9744c-.939-2.8785-2.747-5.1692-5.428-6.8639-2.685-1.6983-6.007-2.5518-9.975-2.5518-4.861 0-9.537 1.2372-14.026 3.7116-4.485 2.4744-8.407 5.9656-11.762 10.4691-3.356 4.5035-5.817 9.636-7.381 15.3934-1.564 5.7611-1.878 10.8365-.935 15.2299.939 4.393 2.979 7.774 6.115 10.134 3.136 2.364 7.174 3.545 12.114 3.545 3.964 0 7.741-.813 11.324-2.438 3.583-1.621 6.624-3.875 9.131-6.754l-2.259 8.305h16.719l15.25-56.1547h-16.723Zm-7.575 27.9128c-1.444 5.3162-3.67 9.379-6.674 12.1841-3.008 2.8048-6.607 4.2098-10.794 4.2098-4.27 0-7.166-1.384-8.693-4.1568-1.535-2.7681-1.588-6.7697-.161-12.0163 1.419-5.2429 3.69-9.3382 6.814-12.2945 3.119-2.9518 6.773-4.4302 10.968-4.4302 4.187 0 7.021 1.425 8.494 4.2668 1.469 2.8419 1.489 6.9209.046 12.2371Zm84.422-27.9139h-48.597l-3.397 12.5186h28.283L227.11 103.25l-3.19 11.739h50.165l3.401-12.515h-30.298l37.956-32.3421 3.07-11.2977Zm52.562 2.104c-3.848-2.3599-8.763-3.5442-14.749-3.5442-6.061 0-11.676 1.1843-16.847 3.5442-5.168 2.364-9.57 5.7611-13.202 10.1912-3.633 4.4302-6.256 9.5998-7.861 15.5079-1.602 5.9081-1.792 11.0732-.559 15.5037 1.229 4.434 3.782 7.827 7.67 10.191 3.886 2.364 8.858 3.545 14.92 3.545 5.987 0 11.543-1.181 16.677-3.545 5.122-2.364 9.508-5.757 13.144-10.191 3.633-4.4305 6.252-9.5956 7.857-15.5037 1.606-5.9081 1.792-11.0777.563-15.5079-1.229-4.4301-3.769-7.8272-7.613-10.1912Zm-9.785 25.7003c-1.501 5.5366-3.731 9.6731-6.677 12.4045-2.95 2.732-6.521 4.095-10.708 4.095-8.754 0-11.638-5.4955-8.651-16.4995 1.486-5.4673 3.724-9.583 6.719-12.3511 2.996-2.7685 6.624-4.1528 10.89-4.1528 4.191 0 7.017 1.3843 8.469 4.1528 1.456 2.7681 1.448 6.8838-.042 12.3511ZM523.25 58.8353l-2.163 7.9744c-.94-2.8785-2.749-5.1692-5.429-6.8639-2.684-1.6983-6.006-2.5518-9.975-2.5518-4.86 0-9.536 1.2372-14.025 3.7116-4.486 2.4744-8.406 5.9656-11.765 10.4691-3.354 4.5035-5.815 9.636-7.38 15.3934-1.562 5.7611-1.875 10.8365-.936 15.2299.94 4.393 2.977 7.774 6.116 10.134 3.136 2.364 7.174 3.545 12.114 3.545 3.965 0 7.743-.813 11.325-2.438 3.583-1.621 6.625-3.875 9.13-6.754l-2.257 8.305h16.717l15.249-56.1547H523.25Zm-7.576 27.9128c-1.443 5.3162-3.668 9.379-6.673 12.1841-3.009 2.8048-6.612 4.2098-10.796 4.2098-4.262 0-7.166-1.384-8.69-4.1568-1.538-2.7681-1.59-6.7697-.163-12.0163 1.419-5.2429 3.692-9.3382 6.815-12.2945 3.119-2.9518 6.771-4.4302 10.968-4.4302 4.188 0 7.022 1.425 8.494 4.2668 1.468 2.8419 1.489 6.9209.045 12.2371ZM400.392 73.8962l4.262-15.283c-1.448-.739-3.368-1.1105-5.759-1.1105-3.819 0-7.493.9431-11.035 2.8255-3.045 1.6169-5.634 3.8827-7.819 6.729l2.213-8.2318-4.84.0082H365.54l-15.362 56.1554h16.95l7.969-29.3499c1.163-4.2831 3.243-7.6232 6.255-10.0238 3.004-2.4011 6.757-3.6016 11.246-3.6016 2.772 0 5.366.629 7.794 1.8825Zm59.036-12.7931c-3.143-2.4744-7.149-3.7075-12.012-3.7075-4.266 0-8.328.9598-12.171 2.8789-3.855 1.9228-6.978 4.5402-9.377 7.864l.057-.3716 2.846-8.9422h-3.278v.0081h-13.268l-4.217 15.5283c-.049.1796-.09.3511-.135.5308l-17.386 64.0231h16.951l8.755-32.232c.854 2.878 2.64 5.132 5.34 6.753 2.708 1.626 6.038 2.438 10.003 2.438 4.941 0 9.638-1.18 14.099-3.544 4.452-2.36 8.328-5.741 11.613-10.134 3.286-4.3898 5.714-9.4689 7.275-15.2304 1.566-5.7611 1.891-10.8895.984-15.3975-.906-4.4994-2.936-7.9906-6.079-10.465Zm-11.845 25.8625c-1.428 5.2466-3.636 9.2482-6.633 12.0163-3.001 2.7721-6.592 4.1531-10.776 4.1531-4.193 0-7.047-1.401-8.564-4.2061-1.525-2.8051-1.566-6.8679-.118-12.1841 1.444-5.3162 3.692-9.3993 6.742-12.2411 3.054-2.8419 6.681-4.2628 10.87-4.2628 4.115 0 6.909 1.4784 8.393 4.4302 1.476 2.9563 1.505 7.0557.086 12.2945Zm162.568-28.1151.013-.0163h-10.272c-.326 0-.614.0082-.915.0163h-5.327l-2.725 3.7442c-.219.286-.439.5679-.671.8982l-.297.4331-21.658 29.7618-4.489-34.8536h-17.734l8.983 52.9618-19.84 27.12h17.673l4.81-6.72c.138-.2.26-.364.411-.576l5.612-7.848.158-.225 25.098-35.1184 21.154-29.5536.029-.0245h-.013Z" clip-rule="evenodd"/><path fill="#3395FF" fill-rule="evenodd" d="m39.2325 45.1626-5.0723 18.4271 29.0316-18.5293-18.9863 69.9106 19.2799.017L91.5322 11.726 39.2325 45.1626Z" clip-rule="evenodd"/><path fill="#0E2562" fill-rule="evenodd" d="M7.98088 85.5978 0 114.988h39.5196s16.1645-59.7724 16.1686-59.7928c-.0122.0122-47.70732 30.4026-47.70732 30.4026Z" clip-rule="evenodd"/><path fill="#FC6D0B" fill-rule="evenodd" d="M626.115 28.5824 648.29 57.164l-14.062 16.3817-35.053-44.9633h26.94Z" clip-rule="evenodd"/><path fill="#0E2562" fill-rule="evenodd" d="m691.683 0-92.508 118.41h24.517L714.483 0h-22.8Z" clip-rule="evenodd"/><path fill="#0E2562" fill-rule="evenodd" d="m641.736 84.0861 48.233 62.9039h28.656L650.13 59.2034l-8.394 24.8827Z" clip-rule="evenodd"/></svg>